<?xml version="1.0" encoding="utf-8"?>
<!-- Generator: Adobe Illustrator 25.4.1, SVG Export Plug-In . SVG Version: 6.00 Build 0)  -->
<svg version="1.1" id="Livello_1" xmlns="http://www.w3.org/2000/svg" xmlns:xlink="http://www.w3.org/1999/xlink" x="0px" y="0px"
	 viewBox="0 0 184.4 44" style="enable-background:new 0 0 184.4 44;" xml:space="preserve">
<style type="text/css">
	.st0{fill-rule:evenodd;clip-rule:evenodd;fill:#000;}
	.st1{fill-rule:evenodd;clip-rule:evenodd;fill:#E20613;}
	.st2{fill:#000;}
</style>
<g>
	<polygon class="st0" points="6.9,22.6 38.3,0.8 21.2,19.4 32.7,19.4 0.7,42.6 17.4,23.5 	"/>
	<path class="st1" d="M5.8,8h19.4L6,21.3l-0.2,0.2V8z M33.2,8.6v9.3h-0.5h-8L33.2,8.6z M33.2,20.9v14.5H13.3L33.2,20.9z M5.8,34.4
		V24l1,0.1l7.5,0.7L5.8,34.4z"/>
	<path class="st2" d="M144.9,28.7c0.3,0.1,0.8,0.2,1.5,0.3c2.1,0.5,3.6,0.7,4.4,0.7c1,0,1.9-0.1,2.6-0.4c0.8-0.3,1.2-0.6,1.3-0.9
		c0.1-0.4-0.4-0.7-1.5-1c-0.4-0.1-0.7-0.2-0.9-0.2c-2.5-0.7-4.1-1.5-4.8-2.3c-0.8-0.9-0.9-2-0.4-3.5c0.7-2.1,2.4-3.7,4.9-4.9
		s5.7-1.7,9.4-1.7c1.2,0,2.4,0.1,3.6,0.2c1.3,0.1,2.5,0.3,3.9,0.5l-2.2,6.3c-1.1-0.2-2.1-0.3-3-0.4s-1.7-0.1-2.5-0.1
		c-1,0-1.7,0.1-2.3,0.2c-0.5,0.2-0.9,0.4-1,0.8c-0.2,0.4,0.4,0.8,1.7,1.1c0.6,0.1,1,0.2,1.4,0.3c2.1,0.6,3.5,1.3,4.2,2.1
		c0.7,0.9,0.8,2,0.3,3.4c-0.8,2.2-2.5,3.9-5.1,5.1s-5.8,1.9-9.6,1.8c-1.4,0-2.7-0.1-4.1-0.3c-1.4-0.2-2.8-0.4-4.2-0.7L144.9,28.7z
		 M142.6,14.7l-7.1,20.4l-10.1,0.7l1-2.9c-1.3,1-2.6,1.7-4,2.1c-1.4,0.5-2.9,0.7-4.4,0.7c-2.6,0-4.3-0.6-5.1-1.8
		c-0.8-1.2-0.8-3,0.1-5.5l4.6-13.2l10.8-0.6L124,26.9c-0.2,0.5-0.2,1,0,1.2c0.2,0.3,0.6,0.4,1.2,0.4s1.1-0.1,1.5-0.4
		s0.7-0.7,0.9-1.2l4.1-11.6L142.6,14.7z M105.9,32.9c-2.2,1-4.4,1.7-6.6,2.2s-4.5,0.7-6.9,0.7c-4.5,0-7.8-1.1-9.9-3.1
		s-2.6-4.6-1.5-7.8c1.1-3.1,3.4-5.7,6.9-7.6c3.5-2,7.5-2.9,11.9-2.9c2.8,0,5.1,0.6,6.9,1.6s3.1,2.6,3.9,4.6l-16.7,7.8
		c0.4,0.1,0.8,0.2,1.2,0.3c0.4,0.1,0.8,0.1,1.2,0.1c0.9,0,2-0.1,3.1-0.4s2.4-0.8,3.9-1.4L105.9,32.9z M91.5,25.1l8.4-3.9
		c-0.3-0.3-0.7-0.5-1.1-0.7c-0.4-0.1-0.9-0.2-1.4-0.2c-1.4,0-2.6,0.3-3.7,0.9c-1,0.6-1.8,1.5-2.1,2.5c-0.1,0.2-0.1,0.4-0.1,0.7
		C91.4,24.6,91.4,24.9,91.5,25.1 M43.9,34.8l18.5-19.2l-9.9-0.1l4.9-7.8l25,0.2L64.2,26.8l12.2,0.1L71.3,35L43.9,34.8z"/>
</g>
<g>
	<path class="st2" d="M182.8,15.1c0,2.5-1.9,4.4-4.5,4.4c-2.5,0-4.5-1.9-4.5-4.4c0-2.4,2-4.4,4.5-4.4
		C180.9,10.8,182.8,12.7,182.8,15.1z M175,15.1c0,1.9,1.4,3.5,3.4,3.5c1.9,0,3.4-1.5,3.4-3.4s-1.4-3.5-3.4-3.5
		C176.4,11.6,175,13.2,175,15.1z M177.7,17.4h-1V13c0.4-0.1,1-0.2,1.7-0.2c0.8,0,1.2,0.2,1.5,0.3c0.2,0.2,0.4,0.6,0.4,1
		c0,0.5-0.4,0.9-0.9,1v0.1c0.4,0.2,0.6,0.5,0.8,1c0.2,0.6,0.2,1,0.3,1.1h-1.1c-0.2-0.2-0.2-0.6-0.3-1c-0.1-0.5-0.3-0.7-0.9-0.7h-0.5
		V17.4z M177.7,14.9h0.5c0.6,0,1-0.2,1-0.6c0-0.4-0.3-0.6-1-0.6c-0.2,0-0.5,0-0.6,0.1V14.9L177.7,14.9z"/>
</g>
</svg>
